<mxfile host="app.diagrams.net" modified="2024-02-05T00:24:00.387Z" agent="Mozilla/5.0 (Windows NT 10.0; Win64; x64) AppleWebKit/537.36 (KHTML, like Gecko) Chrome/121.0.0.0 Safari/537.36" etag="tSM1pIkUq0u6bYvOAZzT" version="23.1.1" type="device">
  <diagram name="Page-1" id="Z61BGIOxVDFpKrkYkZWe">
    <mxGraphModel dx="1562" dy="829" grid="1" gridSize="10" guides="1" tooltips="1" connect="1" arrows="1" fold="1" page="1" pageScale="1" pageWidth="827" pageHeight="1169" math="0" shadow="0">
      <root>
        <mxCell id="0" />
        <mxCell id="1" parent="0" />
        <mxCell id="SK_xrVNvxPWKWxLl1X3k-1" value="&lt;font style=&quot;font-size: 18px;&quot;&gt;Scénario&lt;/font&gt;" style="rounded=0;whiteSpace=wrap;html=1;align=left;verticalAlign=top;" vertex="1" parent="1">
          <mxGeometry x="210" y="250" width="470" height="420" as="geometry" />
        </mxCell>
        <mxCell id="SK_xrVNvxPWKWxLl1X3k-2" value="&lt;font style=&quot;font-size: 16px;&quot;&gt;Énigme&lt;/font&gt;" style="rounded=1;whiteSpace=wrap;html=1;align=left;verticalAlign=top;" vertex="1" parent="1">
          <mxGeometry x="275" y="300" width="340" height="80" as="geometry" />
        </mxCell>
        <mxCell id="SK_xrVNvxPWKWxLl1X3k-7" value="1" style="ellipse;whiteSpace=wrap;html=1;aspect=fixed;" vertex="1" parent="1">
          <mxGeometry x="340" y="315" width="50" height="50" as="geometry" />
        </mxCell>
        <mxCell id="SK_xrVNvxPWKWxLl1X3k-10" value="2" style="ellipse;whiteSpace=wrap;html=1;aspect=fixed;" vertex="1" parent="1">
          <mxGeometry x="420" y="315" width="50" height="50" as="geometry" />
        </mxCell>
        <mxCell id="SK_xrVNvxPWKWxLl1X3k-11" value="2" style="ellipse;whiteSpace=wrap;html=1;aspect=fixed;" vertex="1" parent="1">
          <mxGeometry x="500" y="315" width="50" height="50" as="geometry" />
        </mxCell>
        <mxCell id="SK_xrVNvxPWKWxLl1X3k-18" value="&lt;font style=&quot;font-size: 16px;&quot;&gt;Énigme&lt;/font&gt;" style="rounded=1;whiteSpace=wrap;html=1;align=left;verticalAlign=top;" vertex="1" parent="1">
          <mxGeometry x="275" y="430" width="340" height="80" as="geometry" />
        </mxCell>
        <mxCell id="SK_xrVNvxPWKWxLl1X3k-19" value="4" style="ellipse;whiteSpace=wrap;html=1;aspect=fixed;" vertex="1" parent="1">
          <mxGeometry x="340" y="445" width="50" height="50" as="geometry" />
        </mxCell>
        <mxCell id="SK_xrVNvxPWKWxLl1X3k-20" value="2" style="ellipse;whiteSpace=wrap;html=1;aspect=fixed;" vertex="1" parent="1">
          <mxGeometry x="420" y="445" width="50" height="50" as="geometry" />
        </mxCell>
        <mxCell id="SK_xrVNvxPWKWxLl1X3k-21" value="2" style="ellipse;whiteSpace=wrap;html=1;aspect=fixed;" vertex="1" parent="1">
          <mxGeometry x="500" y="445" width="50" height="50" as="geometry" />
        </mxCell>
        <mxCell id="SK_xrVNvxPWKWxLl1X3k-22" value="&lt;font style=&quot;font-size: 16px;&quot;&gt;Énigme&lt;/font&gt;" style="rounded=1;whiteSpace=wrap;html=1;align=left;verticalAlign=top;" vertex="1" parent="1">
          <mxGeometry x="275" y="560" width="340" height="80" as="geometry" />
        </mxCell>
        <mxCell id="SK_xrVNvxPWKWxLl1X3k-23" value="2" style="ellipse;whiteSpace=wrap;html=1;aspect=fixed;" vertex="1" parent="1">
          <mxGeometry x="340" y="575" width="50" height="50" as="geometry" />
        </mxCell>
        <mxCell id="SK_xrVNvxPWKWxLl1X3k-24" value="2" style="ellipse;whiteSpace=wrap;html=1;aspect=fixed;" vertex="1" parent="1">
          <mxGeometry x="420" y="575" width="50" height="50" as="geometry" />
        </mxCell>
        <mxCell id="SK_xrVNvxPWKWxLl1X3k-25" value="3" style="ellipse;whiteSpace=wrap;html=1;aspect=fixed;" vertex="1" parent="1">
          <mxGeometry x="500" y="575" width="50" height="50" as="geometry" />
        </mxCell>
        <mxCell id="SK_xrVNvxPWKWxLl1X3k-26" value="" style="endArrow=classic;html=1;rounded=0;exitX=1;exitY=0.5;exitDx=0;exitDy=0;entryX=0;entryY=0.5;entryDx=0;entryDy=0;" edge="1" parent="1" source="SK_xrVNvxPWKWxLl1X3k-2" target="SK_xrVNvxPWKWxLl1X3k-18">
          <mxGeometry width="50" height="50" relative="1" as="geometry">
            <mxPoint x="390" y="450" as="sourcePoint" />
            <mxPoint x="440" y="400" as="targetPoint" />
            <Array as="points">
              <mxPoint x="650" y="340" />
              <mxPoint x="650" y="400" />
              <mxPoint x="250" y="400" />
              <mxPoint x="250" y="470" />
            </Array>
          </mxGeometry>
        </mxCell>
        <mxCell id="SK_xrVNvxPWKWxLl1X3k-27" value="" style="endArrow=classic;html=1;rounded=0;exitX=1;exitY=0.5;exitDx=0;exitDy=0;entryX=0;entryY=0.5;entryDx=0;entryDy=0;" edge="1" parent="1">
          <mxGeometry width="50" height="50" relative="1" as="geometry">
            <mxPoint x="615" y="470" as="sourcePoint" />
            <mxPoint x="275" y="600" as="targetPoint" />
            <Array as="points">
              <mxPoint x="650" y="470" />
              <mxPoint x="650" y="530" />
              <mxPoint x="250" y="530" />
              <mxPoint x="250" y="600" />
            </Array>
          </mxGeometry>
        </mxCell>
      </root>
    </mxGraphModel>
  </diagram>
</mxfile>
